<svg width="1080" height="1080" viewBox="0 0 1080 1080" fill="none" xmlns="http://www.w3.org/2000/svg">
<g clip-path="url(#clip0_103_29)">
<path fill-rule="evenodd" clip-rule="evenodd" d="M227.177 367.258C213.096 341.265 231.91 309.661 261.467 309.661H278.406C299.945 309.661 317.406 292.195 317.406 270.65V260.011C317.406 238.466 299.945 221 278.406 221H86.058C56.0786 221 37.3094 253.425 52.2347 279.432L373.029 838.411C388.035 864.559 425.759 864.522 440.714 838.344L760.043 279.366C774.9 253.359 756.127 221 726.181 221H691.057C677.053 221 664.124 228.51 657.183 240.677L439.573 622.153C424.882 647.906 387.975 648.499 372.464 623.232L344.884 578.303L281.952 468.364L227.177 367.258ZM344.944 403.346C338.016 415.582 338.208 430.6 345.446 442.655L363.705 473.066C379.087 498.684 416.373 498.2 431.083 472.19L540.228 279.22C554.937 253.215 536.155 221 506.284 221H470.913C456.864 221 443.9 228.559 436.977 240.787L344.944 403.346Z" fill="#696CFF"/>
<path d="M1028.8 279.366L710.597 836.38C695.4 862.981 656.883 862.481 642.383 835.493L568.642 698.254C562.325 686.498 562.455 672.327 568.987 660.689L586.288 629.863C599.176 606.9 632.061 606.445 645.579 629.042C659.043 651.549 691.758 651.21 704.753 628.429L925.944 240.677C932.884 228.51 945.814 221 959.818 221H994.942C1024.89 221 1043.66 253.359 1028.8 279.366Z" fill="#696CFF"/>
</g>
<defs>
<clipPath id="clip0_103_29">
<rect width="1080" height="1080" fill="white"/>
</clipPath>
</defs>
</svg>
