<svg width="814" height="814" viewBox="0 0 814 814" fill="none" xmlns="http://www.w3.org/2000/svg">
<rect width="814" height="814" fill="white"/>
<path fill-rule="evenodd" clip-rule="evenodd" d="M230.638 309.482C222.695 294.823 233.308 277 249.981 277H259.536C271.687 277 281.536 267.15 281.536 255V249C281.536 236.85 271.687 227 259.536 227H151.033C134.121 227 123.534 245.286 131.953 259.953L312.913 575.187C321.378 589.933 342.658 589.912 351.094 575.149L531.228 259.915C539.609 245.249 529.019 227 512.126 227H492.313C484.413 227 477.12 231.236 473.204 238.097L350.45 453.229C342.163 467.752 321.344 468.087 312.594 453.837L297.036 428.5L261.536 366.5L230.638 309.482ZM290.301 329.833C286.393 336.734 286.501 345.203 290.584 352.001L300.884 369.152C309.561 383.599 330.594 383.326 338.892 368.658L400.461 259.833C408.758 245.167 398.163 227 381.313 227H361.36C353.435 227 346.122 231.263 342.217 238.159L290.301 329.833Z" fill="#696CFF"/>
<path d="M682.836 259.915L503.335 574.041C494.763 589.043 473.035 588.761 464.855 573.541L423.258 496.146C419.695 489.516 419.768 481.524 423.453 474.961L433.212 457.577C440.483 444.627 459.033 444.37 466.659 457.114C474.254 469.807 492.708 469.615 500.039 456.768L624.813 238.097C628.728 231.236 636.021 227 643.921 227H663.735C680.627 227 691.217 245.249 682.836 259.915Z" fill="#696CFF"/>
</svg>
